<svg width="96" height="98" viewBox="0 0 96 98" fill="none" xmlns="http://www.w3.org/2000/svg">
<path d="M64.8066 21.2576C64.4286 16.3561 61.3433 13.0414 59.2743 11.3471C58.646 10.8329 57.726 11.3225 57.7648 12.1502C57.8637 14.2409 57.9901 17.6217 57.3492 21.1592C57.2404 21.7628 57.6384 22.2589 58.2329 22.2589H63.9004C64.4249 22.2589 64.8467 21.7978 64.8054 21.2563L64.8066 21.2576Z" fill="black"/>
<path d="M51.6116 95.5558C53.6681 93.6245 53.6781 92.4238 52.0297 90.8681C51.2562 90.1375 50.1597 89.8953 49.1496 90.1803L40.1364 95.4043C39.5982 95.5558 39.7046 96.3771 40.2629 96.3771H49.5314C50.2974 96.3771 51.0446 96.0882 51.6116 95.5558Z" fill="#EA5514"/>
<path d="M58.3819 82.784C64.8992 79.0613 69.8383 70.9124 70.5016 62.8439C70.5354 62.4306 71.1087 62.3944 71.1963 62.7985C73.4017 72.9435 71.6344 81.0055 58.6159 83.4589C58.2266 83.5327 58.0351 82.9809 58.3806 82.784H58.3819Z" fill="black"/>
<path d="M35.5904 90.2619C34.7155 90.5974 31.7078 91.7515 30.0494 92.3707C29.8153 92.4575 29.7665 92.7735 29.958 92.938L33.1722 95.7281C33.763 96.2333 34.5165 96.5027 35.2825 96.4652C38.0562 96.3305 38.8022 95.4108 38.488 93.1258C38.3516 92.1362 37.0248 90.837 36.0698 90.2904C35.9209 90.2049 35.7494 90.201 35.5904 90.2619Z" fill="#EA5514"/>
<path d="M63.4047 42.6602H62.3559C61.108 42.6602 59.9777 42.6304 58.9388 42.5708C58.3568 42.6356 57.7673 42.6705 57.1702 42.6705C47.4011 42.6705 39.4818 33.751 39.4818 22.7485C39.4818 11.7461 47.3998 2.82781 57.1702 2.82781C59.9189 2.82781 62.5211 3.53375 64.8417 4.7941C64.8417 4.7941 64.8429 4.7941 64.8442 4.7941C65.2247 4.98063 65.5488 4.45991 65.2247 4.18141C62.7414 2.04414 59.6711 0.731978 56.1952 0.222918C42.5772 -1.77058 30.6902 9.80051 31.117 24.027C31.2597 28.7782 31.9644 32.4155 32.7116 35.2756C33.8068 39.4737 33.0696 43.9594 30.754 47.5889L0.153522 95.5468C-0.27079 96.2113 0.218608 97.0895 0.987126 97.0506C13.0944 96.4406 24.0527 94.153 33.4902 89.6453C37.8472 87.5637 40.6233 83.0327 40.6233 78.0677V73.1378C40.6233 58.9035 52.3251 47.3402 66.0432 47.1316C66.2573 47.1277 66.4212 46.9347 66.3887 46.7171C66.1233 44.9646 64.3084 42.7003 63.4035 42.6641L63.4047 42.6602Z" fill="black"/>
<path d="M71.8484 6.24743C71.5468 6.15935 71.3791 6.59458 71.6569 6.74613C80.401 11.5025 85.8833 18.8263 85.8833 22.7498C85.8833 26.6733 80.391 34.0113 71.6319 38.7664C71.354 38.9167 71.5205 39.3532 71.8234 39.2651C87.3777 34.7639 95.9966 26.2744 95.9966 22.7498C95.9966 19.2252 87.364 10.7538 71.8484 6.24743Z" fill="#EA5514"/>
<path d="M75.6134 12.079C74.4256 11.1503 72.8047 10.013 70.797 8.90677C70.4578 8.72024 70.1111 9.14511 70.3514 9.45598C73.1714 13.1023 74.8599 17.7253 74.8599 22.7486C74.8599 27.7718 73.1714 32.3948 70.3514 36.0411C70.1111 36.3507 70.4578 36.7769 70.797 36.5903C72.8059 35.4841 74.4268 34.3468 75.6134 33.4181C81.1345 29.0995 83.6178 24.5788 83.6178 22.7473C83.6178 20.9157 81.1345 16.395 75.6134 12.0764V12.079Z" fill="#F8B62D"/>
</svg>
