<svg fill="none" height="115" viewBox="0 0 174 115" width="174" xmlns="http://www.w3.org/2000/svg" xmlns:xlink="http://www.w3.org/1999/xlink"><clipPath id="a"><path d="m0 0h174v115h-174z"/></clipPath><g clip-path="url(#a)"><path d="m51.6721 115c-7.6839 0-14.5863-4.045-18.4438-10.563-4.9117.269-9.4575.576-13.8111.939l-2.431.2-1.3272-1.471c-.2356 0-.4589 0-.6884 0-7.01403 0-11.06992-2.21-12.04978-6.5622-.3721-1.6468-.72559-3.4-1.04808-5.2033-.53954-1.5404-1.215525-4.0638-1.041879-6.7312-1.60623-12.542-.8930388-21.4647 2.127169-26.5428 3.7396-6.2867 12.84367-10.5007 21.64997-14.577 4.9179-2.2792 11.039-5.1094 12.608-7.0442.5396-.6638 1.0109-1.3588 1.4388-2.1102.738-4.1389 2.0527-9.8369 4.2543-15.0841 1.1597-4.3455 3.2435-9.9121 8.8188-15.13422 3.2435-3.03687 8.5645-4.420674 17.2592-4.470766l52.6829-.331864c1.836-.212893 3.597-.3256012 5.247-.3256012 20.068 0 23.504 15.6852512 26.264 28.2897512.477 2.1853.974 4.427 1.532 6.5935.849.4132 2.22.9517 3.218 1.3399 3.697 1.4465 7.517 2.9367 9.737 5.7607 2.772 3.519 4.49 9.1419 5.24 17.1692 1.191 3.3437 1.532 8.5345.385 12.1036-.186 8.8351-1.396 20.131-3.368 24.4765-3.032 6.7003-10.635 6.7753-16.744 6.8373-2.189.025-4.261.044-5.929.32-.285.05-.577.069-.862.069-.118 0-.267 0-.44-.019-3.715 6.919-10.946 11.44-18.928 11.44-7.981 0-15.268-4.502-18.977-11.522-1.197.013-7.095.082-7.095.082l-14.1951.15c-5.2218.056-10.5863.113-16.0003.194-3.6714 7.132-10.9521 11.722-19.0825 11.722z" fill="#fff"/><path d="m19.0142 100.386c22.0221-1.8413 46.3078-2.0793 68.3981-2.3172 5.6807-.0626 11.3677-.119 17.0487-.1816 23.721-.2567 56.745-1.1709 57.526-2.2917.608-.8641 4.149-7.9209 4.261-8.9729.204-1.9223-10.183-1.2523-16.782-1.772-.564-.0438-1.16-.1002-1.631-.4195-.508-.3444-1.042-.8891-1.036-1.509.056-4.5459-2.108-10.9703-6.511-14.8587-3.808-3.3625-14.115-3.9699-19.703-3.062-2.654.4321-8.763 3.1997-11.095 5.4163-4.825 4.5772-4.155 10.2377-5.147 16.8499-9.5445.4195-19.0889.839-28.6332 1.2586-1.0357.0438-2.1458.0688-3.014-.4947-.8559-.5573-1.6373-1.4902-1.6869-2.5171-.2481-5.4977-4.6078-13.8569-10.5986-16.6245-4.9862-2.3043-11.1072-1.2085-16.4468.0563-1.4574.3444-3.8699 1.6781-5.1226 2.5109-1.6186 1.077-5.1846 4.6774-6.0652 6.4181-2.3257 4.571-3.6218 6.5371-3.7706 11.6716-3.8823.382-9.5072.8578-13.3894.4759-4.3226 1.8158 3.3985 10.3693 3.3985 10.3693z" fill="#383838"/><path d="m56.3917 10.2189c-10.4808 9.7243-9.1661 18.7221-13.9724 31.79-7.2559 2.9054-27.8082 12.0535-32.83778 20.419-3.93185 6.5433-2.70392 23.1177 2.29458 29.8552 2.8094 3.7882 10.8405 3.9949 19.6159 3.1934 1.724-.1566-3.0512-19.5299 19.3058-22.3789 10.2699-1.3087 20.8499 7.0568 20.6329 21.377-.0186 1.1772 15.4731 1.9348 35.5723 1.4402.571-.0125.813-21.8466 18.202-23.4308 22.742-2.0726 20.435 22.0407 22.959 21.809 5.798-.5322 14.698 1.3838 16.292-4.0512 1.345-2.0914 2.48-6.6498 2.325-9.1419-.515-8.2089-.409-16.4116-.924-24.6205-.167-2.705-1.612-6.1426-2.958-8.4844-3.287-5.698-10.01-5.2284-15.765-8.1651-2.034-7.9522-2.207-14.0259-4.235-21.9781-1.104-4.3205-3.027-5.8233-6.487-8.58462-3.603-2.87406-11.69-2.35435-16.286-2.32305-16.819.10645-33.6439.20664-50.4628.31308-5.6063.03757-10.7537.63868-13.2591 2.95549z" fill="#fff"/><path d="m55.1017 8.79752c-11.0017 10.30658-6.152 22.07828-14.0467 31.82758-5.197 6.4181-28.5649 12.1537-33.8425 21.0263-4.1303 6.9379-1.73646 24.6143.54575 34.7893 1.09769 4.8773 16.34135 1.7345 25.54465.8766-6.8156-26.1295 36.7882-32.604 36.9557-1.0644-.0186 1.246 18.0964 2.0475 39.1944 1.5278.602-.0125-1.699-24.1321 16.621-24.2198 21.854-.1001 17.749 24.8084 20.372 24.3763 6.716-1.102 16.484 1.1647 18.958-4.2954 2.704-5.9735 5.65-39.2851-1.637-48.546-2.642-3.3624-12.211-4.9779-13.451-7.4011-4.614-16.4241-3.703-35.40296-28.354-32.36609-17.656.1127-35.3062.21915-52.9624.33186-5.8853.03757-11.287.67625-13.9103 3.13705z" fill="#fac13d"/><path d="m94.8296 96.998c-10.8902 0-22.6423-.3694-23.9943-1.7219-.2232-.2254-.3411-.5135-.3411-.814.0993-6.581-2.183-12.3228-6.4311-16.1674-3.659-3.3061-8.4529-4.859-13.1599-4.2641-16.7321 2.1289-17.5507 13.5625-17.9414 19.0539-.1365 1.9411-.2295 3.2247-1.3892 3.3312-11.5289 1.0582-17.8298-.0439-20.4407-3.5629-5.18456-6.9879-6.48071-24.0319-2.3442-30.9071 5.5443-9.2233 28.7261-18.9537 32.8998-20.6506 1.3706-3.7883 2.214-7.1946 3.0326-10.4944 1.9101-7.6892 3.5598-14.3328 11.0452-21.27057 2.307-2.14146 6.7164-3.1621 13.8793-3.20593l50.4634-.31308c.527 0 1.103-.01252 1.717-.02504 4.937-.08766 11.709-.20037 15.151 2.54846l.093.07513c3.461 2.76133 5.551 4.42693 6.723 9.01663 1.029 4.02 1.593 7.6078 2.139 11.0768.521 3.3061 1.055 6.7186 1.997 10.4818 1.774.8516 3.659 1.4026 5.489 1.9348 3.9 1.1396 7.925 2.3168 10.288 6.4056 1.371 2.3794 2.903 5.961 3.082 8.8977.261 4.1201.36 8.3029.466 12.3478.099 4.0262.204 8.1902.458 12.2727.168 2.7113-.992 7.3198-2.4 9.599-1.463 4.6336-7.28 4.5584-12.403 4.5021-1.674-.0188-3.256-.0376-4.657.0876-1.439.1315-1.817-1.5466-2.444-4.3267-1.494-6.6248-4.267-18.9601-20.515-17.4823-13.978 1.2711-16.298 16.2926-17.061 21.233-.229 1.4965-.335 2.1853-1.203 2.204-3.398.0814-7.7271.1441-12.1923.1441zm-22.4687-2.9993c2.3319.7201 14.915 1.4339 33.9291.9956.031-.1941.068-.4133.099-.6324 2.19-14.2075 8.497-21.8842 18.729-22.8109 17.874-1.628 20.993 12.2601 22.494 18.935.242 1.0644.533 2.3606.763 2.849 1.407-.1065 2.933-.0877 4.546-.0689 4.738.0564 9.643.1127 10.642-3.2873.024-.0877.062-.1691.111-.2442 1.222-1.8973 2.326-6.2178 2.177-8.5659-.261-4.1201-.36-8.3028-.465-12.3478-.099-4.0262-.205-8.1901-.459-12.2727-.161-2.6048-1.631-5.9735-2.834-8.0711-1.985-3.4376-5.327-4.4144-9.197-5.5478-2.041-.5948-4.155-1.2147-6.19-2.2479-.241-.1189-.415-.3443-.483-.6011-1.03-4.0199-1.594-7.6078-2.14-11.0767-.539-3.4251-1.098-6.9691-2.102-10.9014-1.017-3.9761-2.704-5.3223-6.072-8.0085l-.093-.0752c-2.927-2.33554-9.569-2.22283-13.966-2.14143-.62.01252-1.203.01879-1.736.02505l-50.4632.31308c-6.58.04383-10.7103.92671-12.6328 2.7113-7.0699 6.5621-8.5831 12.6421-10.4932 20.3438-.862 3.4626-1.7489 7.038-3.2373 11.083-.093.2504-.2852.4445-.5271.5447-2.121.8516-9.6188 3.9448-17.1476 8.115-7.9133 4.3831-13.1785 8.5032-15.2313 11.9221-3.75818 6.2553-2.49924 22.4101 2.245 28.8032 2.09 2.8177 8.0932 3.7569 18.3383 2.8615.0621-.3819.1117-1.0394.1551-1.6343.3969-5.5227 1.3209-18.4591 19.5662-20.7821 5.2342-.6637 10.5677 1.0582 14.6297 4.7275 4.5459 4.1138 7.0451 10.1688 7.0513 17.1003z" fill="#000"/><path d="m85.2231 55.177c1.3147 1.2085 7.3613.5197 8.0311-.1754.6698-.695.4962-2.0725-.3535-2.5735-.4403-.2567-.9674-.2942-1.476-.3256-1.4574-.0876-2.9147-.1815-4.3783-.2692-.6636-.0438-1.5318.0877-2.0838.4571-.5519.3694-.2046 2.4608.2667 2.8928z" fill="#fff"/><path d="m88.5534 56.7737c-1.6807 0-3.2621-.2567-3.9629-.8954-.6512-.5948-.9054-2.0976-.8434-2.9554.0496-.67.2853-1.1459.6884-1.4152.7814-.5259 1.8853-.6637 2.6605-.6136l4.3784.2693c.5271.0313 1.2465.0751 1.8853.4508.6573.3882 1.0977 1.0707 1.2093 1.891.1116.814-.124 1.5967-.6512 2.1477-.6078.6387-3.076 1.1146-5.3644 1.1146zm-2.6791-2.2667c.6635.4884 5.4264.5886 6.7412-.1941.1054-.1315.1488-.3381.1178-.551-.031-.2317-.1489-.432-.3039-.526-.2605-.1502-.6884-.1815-1.0667-.2003l-4.3784-.2693c-.4899-.025-1.0356.0626-1.3705.2254-.0558.3757.0868 1.2273.2605 1.5153z" fill="#000"/><path d="m120.107 55.6467c1.315 1.2085 7.362.5197 8.032-.1753.669-.6951.496-2.0726-.354-2.5735-.44-.2568-.967-.2943-1.476-.3256-1.457-.0877-2.915-.1816-4.378-.2693-.664-.0438-1.532.0877-2.084.4571-.552.3695-.205 2.4608.267 2.8929z" fill="#fff"/><path d="m123.438 57.2435c-1.681 0-3.262-.2568-3.963-.8955-.651-.5948-.906-2.0976-.844-2.9554.05-.67.286-1.1459.689-1.4151.781-.526 1.885-.6638 2.66-.6137l4.379.2693c.527.0313 1.246.0751 1.885.4508.657.3882 1.098 1.0707 1.209 1.891.112.814-.124 1.5967-.651 2.1477-.608.6387-3.076 1.1146-5.364 1.1146zm-2.679-2.2667c.657.4884 5.426.5885 6.741-.1941.105-.1315.149-.3382.118-.5511-.031-.2316-.149-.432-.304-.5259-.261-.1503-.689-.1816-1.067-.2004l-4.378-.2693c-.49-.0313-1.036.0627-1.371.2255-.056.3757.087 1.2272.261 1.5153z" fill="#000"/><path d="m51.6722 109.991c9.1621 0 16.5895-7.569 16.5895-16.9065 0-9.3371-7.4274-16.9063-16.5895-16.9063s-16.5894 7.5692-16.5894 16.9063c0 9.3375 7.4273 16.9065 16.5894 16.9065z" fill="#000"/><path d="m51.9822 103.103c5.2232 0 9.4575-4.3453 9.4575-9.7054 0-5.3602-4.2343-9.7055-9.4575-9.7055-5.2233 0-9.4575 4.3453-9.4575 9.7055 0 5.3601 4.2342 9.7054 9.4575 9.7054z" fill="#fff"/><path d="m51.8272 100.598c3.9389 0 7.1319-3.2235 7.1319-7.2004s-3.193-7.2008-7.1319-7.2008c-3.9388 0-7.1319 3.2239-7.1319 7.2008s3.1931 7.2004 7.1319 7.2004z" fill="#fff"/><path d="m51.8271 101.538c-4.4466 0-8.0622-3.6508-8.0622-8.1404 0-4.4895 3.6156-8.14 8.0622-8.14 4.4465 0 8.0621 3.6505 8.0621 8.14 0 4.4896-3.6156 8.1404-8.0621 8.1404zm0-14.402c-3.4172 0-6.2017 2.8115-6.2017 6.2616s2.7845 6.2616 6.2017 6.2616c3.4171 0 6.2016-2.8115 6.2016-6.2616s-2.7845-6.2616-6.2016-6.2616z" fill="#000"/><path d="m127.022 109.365c9.162 0 16.59-7.569 16.59-16.9065 0-9.3371-7.428-16.9063-16.59-16.9063s-16.589 7.5692-16.589 16.9063c0 9.3375 7.427 16.9065 16.589 16.9065z" fill="#000"/><path d="m127.332 102.477c5.224 0 9.458-4.3452 9.458-9.7054s-4.234-9.7054-9.458-9.7054c-5.223 0-9.457 4.3452-9.457 9.7054s4.234 9.7054 9.457 9.7054z" fill="#fff"/><path d="m127.177 100.911c-4.446 0-8.062-3.6501-8.062-8.1396 0-4.4896 3.616-8.1401 8.062-8.1401 4.447 0 8.063 3.6505 8.063 8.1401 0 4.4895-3.616 8.1396-8.063 8.1396zm0-14.4012c-3.417 0-6.201 2.8115-6.201 6.2616s2.784 6.2616 6.201 6.2616c3.418 0 6.202-2.8115 6.202-6.2616s-2.784-6.2616-6.202-6.2616z" fill="#000"/><path d="m57.6816 16.2489-3.2807 27.0437-11.6033-1.9724s1.9225-19.7177 10.0839-27.6761c1.8171-1.7721 4.8001 2.6048 4.8001 2.6048z" fill="#fff"/><path d="m54.3948 44.2382c-.0496 0-.1055 0-.1551-.0125l-11.6033-1.9724c-.4837-.0814-.8186-.526-.769-1.0207.0806-.8202 2.0528-20.156 10.363-28.2647.5271-.5134 1.1783-.7451 1.8977-.6762 2.0279.2066 3.9505 2.8865 4.3164 3.4188.1302.1878.186.4195.155.6449l-3.2807 27.0437c-.031.2568-.1612.4822-.3659.6387-.1612.119-.3597.1879-.5581.1879zm-10.5739-3.6881 9.7677 1.6593 3.1194-25.7037c-.7442-1.0019-1.9721-2.2542-2.766-2.3356-.1426-.0125-.2666.0063-.4155.1566-6.8652 6.6936-9.2218 22.3663-9.7056 26.2234z" fill="#000"/><path d="m70.8601 17.0754c-6.2264 2.5172-4.9055 25.7163-4.9055 25.7163l26.8718.5823.7256-27.2253s-18.729-.6762-22.6919.9267z" fill="#fff"/><path d="m92.8264 44.3132h-.0186l-26.8718-.5823c-.4837-.0125-.8806-.3945-.9054-.8829-.1365-2.442-1.1659-23.9567 5.4884-26.6429 4.0993-1.6531 22.295-1.0207 23.0702-.9956.5086.0188.9117.4508.8993.9642l-.7256 27.2254c-.0124.5071-.4279.9141-.9303.9141zm-25.9911-2.442 25.0795.5448.676-25.3594c-5.7366-.1753-18.4562-.2943-21.3896.8892-3.9504 1.5967-4.769 15.1592-4.3659 23.9254z" fill="#000"/><path d="m102.954 15.9233-.757 27.5509 26.357-.0125s.236-24.1258-6.623-26.5992c-3.324-1.1959-18.971-.9392-18.971-.9392z" fill="#fff"/><path d="m102.191 44.4134c-.254 0-.49-.1002-.67-.2818s-.273-.4258-.26-.6825l.756-27.5509c.013-.5009.416-.9017.912-.9142 1.619-.025 15.913-.2254 19.299.9956 7.275 2.6173 7.269 24.9524 7.244 27.4883 0 .5134-.422.933-.93.933l-26.357.0125zm1.668-27.5634-.707 25.6849 24.466-.0125c-.019-1.9286-.131-6.5684-.732-11.3334-.986-7.7957-2.859-12.5733-5.272-13.4436-2.437-.8766-12.905-.9455-17.755-.9017z" fill="#000"/><path d="m63.8025 32.8044c-.3783 1.5967-.0558 3.2498.3101 4.8527.3039 1.3212.6822 2.7113 1.7737 3.6568.5953.5134 1.4387.8641 2.2574.7326 1.4822-.2442 2.0899-1.8033 2.2636-3.1245.1612-1.2461-.1117-4.0701-.2233-5.3224-.2046-2.2416-5.997-2.3919-6.3753-.7952z" fill="#fff"/><path d="m67.7841 43.0109c-.8683 0-1.7737-.3507-2.5117-.9831-1.2899-1.1145-1.7303-2.6611-2.0714-4.1577-.3907-1.6968-.7318-3.5064-.31-5.2847.3597-1.4965 2.4806-1.8848 4.1861-1.7658 2.3442.1691 3.8822 1.2022 4.0187 2.6862l.0124.1503c.1302 1.4276.3783 4.0763.2046 5.3787-.2853 2.1915-1.4264 3.663-3.0388 3.926-.1674.025-.3349.0376-.5023.0376zm-3.0885-9.9434c-.3162 1.3713-.0248 2.8553.3225 4.3769.2853 1.2397.6078 2.4107 1.4698 3.1558.3597.3131.9427.6074 1.5008.5197 1.0977-.1816 1.4078-1.6844 1.4946-2.3168.1427-1.0958-.1054-3.8008-.2108-4.9592l-.0124-.1502c-.0248-.2818-.4652-.5886-1.1225-.7827-1.4388-.4321-3.1257-.1566-3.4358.1628z" fill="#000"/><path d="m61.3714 44.6576c-.5705-2.6424 1.7737-5.1095 4.1241-7.157.2915-.2567.7132-.5385 1.1411-.4195.6636.1815.3287.9141-.0682 1.3462-1.3086 1.4214-2.1086 3.0995-2.2822 4.8151-.0744.7076-.062 1.4653-.614 2.0476-.5519.5823-1.9411.7639-2.4.144-.2605-.3507-.1117-.7827.0372-1.1709" fill="#fff"/><path d="m62.2584 46.7552c-.0621 0-.1241 0-.1861 0-.6636-.0376-1.2155-.3131-1.5504-.7576-.5023-.6763-.3225-1.4214-.1612-1.8723-.1737-2.8177 2.1643-5.2785 4.5272-7.3323.6697-.5885 1.3457-.7952 1.9907-.6198.5085.1377.8806.4884 1.0109.958.248.8766-.4279 1.7031-.645 1.9348-1.1783 1.2774-1.8853 2.7551-2.0404 4.2704l-.0248.263c-.062.7075-.1364 1.5904-.8434 2.3355-.4837.5072-1.2837.8203-2.0899.8203zm2.1891-6.9942c-1.4449 1.4903-2.5116 3.1058-2.1643 4.6962.031.1503.0248.3006-.0062.4383.248-.0188.5891-.1064.7256-.2504.2418-.2505.2852-.6199.3348-1.2023l.0249-.2943c.1178-1.1709.4899-2.3105 1.0852-3.3812z" fill="#000"/><path d="m140.957 13.6128c-1.42-1.4902-7.318 2.0037-7.318 2.0037l4.943 27.0563 9.321-3.231s-1.346-19.9556-6.946-25.829z" fill="#fff"/><path d="m138.588 43.6118c-.161 0-.322-.0438-.471-.1315-.236-.1377-.397-.3694-.446-.6387l-4.943-27.0562c-.068-.3882.105-.7827.446-.9831 1.96-1.1646 6.717-3.6755 8.459-1.8471 5.774 6.0486 7.151 25.591 7.207 26.4175.031.4258-.23.814-.627.9518l-9.321 3.2309c-.099.0314-.198.0501-.304.0501zm-3.907-27.5071 4.627 25.3281 7.615-2.6361c-.303-3.5817-1.91-19.58-6.635-24.5266-.385-.407-2.903.3256-5.613 1.8409z" fill="#000"/><path d="m162.707 59.6853c-1.464 2.0914-.819 9.2984 1.023 10.8951.905.789 3.789 1.0708 4.465 0 1.408-2.2291.974-9.336-.763-11.2019-.886-.9455-3.956-.789-4.719.3068z" fill="#fff"/><path d="m166.273 72.2211c-1.123 0-2.425-.3006-3.145-.9267-2.195-1.8973-2.939-9.6178-1.178-12.1475.732-1.0456 2.301-1.2648 2.946-1.3086.521-.0376 2.294-.0814 3.212.9016 1.985 2.1227 2.524 9.743.875 12.3479-.36.5698-1.03.9455-1.929 1.0769-.242.0376-.502.0564-.781.0564zm-.912-12.5231c-.105 0-.217 0-.335.0125-.868.0626-1.432.3381-1.557.5197-1.19 1.7094-.595 8.3717.869 9.6366.31.2692 1.439.5823 2.425.4445.452-.0626.626-.2003.651-.2379 1.184-1.8722.75-8.5408-.658-10.0498-.136-.1441-.651-.3256-1.395-.3256z" fill="#000"/><path d="m9.93497 78.8646c-2.37523-2.6737-3.69619-6.2741-3.61557-9.862.02481-1.2335.23567-2.5234.96746-3.5064.7318-.9831 2.12097-1.5654 3.23104-1.052 1.0791.5009 1.5504 1.7783 1.8295 2.943.6698 2.8239.8434 5.7606.5086 8.6409-.0931.7952-.2543 1.6531-.8497 2.1791-.5953.5259-2.06513.6512-2.06513.6512z" fill="#fff"/><path d="m9.93494 79.8039c-.26047 0-.51474-.1127-.69459-.3131-2.53027-2.849-3.93805-6.6811-3.85743-10.5069.03721-1.7344.41551-3.0619 1.15971-4.0512 1.06049-1.4214 2.93339-1.9975 4.35977-1.34 1.507.695 2.059 2.3731 2.3442 3.5816.7008 2.9429.8745 5.961.5272 8.9728-.1117.9643-.3349 2.0413-1.1659 2.7739-.7877.6951-2.3071.8579-2.6047.8829-.02485 0-.04966 0-.08066 0zm-.30388-14.6082c-.59536 0-1.24033.3882-1.59383.8641-.49613.6699-.7566 1.6405-.78141 2.9617-.06822 3.1934 1.04188 6.3868 3.06358 8.8413.4528-.0814.9179-.2191 1.0791-.3632.3535-.313.4714-.9768.5396-1.5841.3225-2.7864.1612-5.5854-.49-8.3154-.31-1.3087-.7255-2.0413-1.3085-2.3105-.16125-.0752-.32869-.1065-.50234-.1065z" fill="#000"/><path d="m6.24486 83.9615c.78141-1.6343 7.37994.7013 8.81254.9079 2.1582.3131 5.8668-.3632 7.411 1.1959 1.9225 1.9349 1.5938 4.6649 1.6186 7.4075.0186 2.5798-1.476 3.1621-3.0078 3.6004-5.3148 1.5278-10.4436-.5823-12.59554-2.8866-1.84809-1.9724-3.59076-7.3949-2.2388-10.2251z" fill="#fff"/><path d="m17.4203 98.5197c-4.031 0-7.70863-1.6468-9.61254-3.6881-2.02794-2.1665-3.97526-7.9835-2.40004-11.2833.86203-1.8034 4.06209-1.1083 8.16138-.0125.6884.1815 1.3396.3569 1.6248.4007.6016.0877 1.3706.0877 2.1892.0939 2.0652.0063 4.4032.0188 5.7428 1.365 1.9411 1.9537 1.9163 4.5146 1.8915 6.9879 0 .357-.0062.7201 0 1.0833.0248 3.4439-2.3877 4.1389-3.6838 4.5146-1.3086.3757-2.6295.5448-3.9133.5448zm-10.36294-14.0948c-1.1287 2.4733.49614 7.4137 2.09616 9.1231 1.70548 1.8221 6.38768 4.1452 11.66528 2.6236 1.4574-.4195 2.3443-.8077 2.3319-2.6925 0-.3694 0-.7451 0-1.1145.0248-2.273.0434-4.2391-1.3458-5.6355-.8-.8077-2.7349-.814-4.4404-.8202-.8868 0-1.724 0-2.4496-.1127-.3907-.0564-1.0295-.2254-1.8357-.4446-1.3024-.3506-5.24663-1.4026-6.02804-.933z" fill="#000"/></g></svg>
