<svg fill="none" height="40" viewBox="0 0 70 40" width="70" xmlns="http://www.w3.org/2000/svg" xmlns:xlink="http://www.w3.org/1999/xlink"><clipPath id="a"><path d="m0 0h70v40h-70z"/></clipPath><g clip-path="url(#a)"><path d="m69.1713 23.814c2.3026-2.8837-1.3816-7.0697-4.5132-6.3255-.3684-1.0233-1.3815-1.8605-2.3947-2.0465.6447-3.0698-2.671-4.6512-5.3421-4.3721-1.3816-3.4419-8.0132-2.88376-7.9211 1.3023h-.2763c-.7368-1.9535-3.0394-2.3256-4.8816-1.8605-.6447 0-1.2894.3721-1.8421.8372l-5.0657-1.1163c-.0922 0-.1843 0-.3685 0v-2.69763c.3685-6.604647-1.3815-7.25581-7.4605-6.883717-3.0395.372097-9.0263-1.116279-11.0526 1.581397-.1842-.65116-.6448-1.2093-1.1974-1.67442-1.75-1.302326-4.1447-.372093-5.8026.74419-.3684 0-.7369 0-1.19739 0-2.39474-1.860469-7.55264 0-7.27632 3.44186-2.947368 1.11628-2.394737 5.30232-.55263 7.16282-2.763159 1.4883-1.750001 4.9302.27631 6.6046 1.47369 1.8605 3.86843 1.0233 5.71053.2791 2.0263 3.0698 7.1842 1.8605 10.3158 1.4884.1842.093.2763.279.4605.3721-.2763 0 .7369 10.1395.7369 10.5116.2763 3.7209 5.8947 4.186 7.6447 1.3953 0 0 1.9342.7442 2.0263.7442 1.1974.4651 2.6711.2791 3.6842-.4651.6448-.4651 1.1053-1.1163 1.3816-1.8605.4605.5582 1.0132 1.0233 1.6579 1.3954 1.0132.3721 2.1184.3721 3.1316 0l2.7631-1.3023c0 1.7674 1.2895 3.4418 3.0395 3.5348-1.0131 4.3721 6.079 7.3489 8.0132 2.6977 1.0131.6512 2.3947 1.3954 3.5921 1.3023 1.5658 1.4884 4.6973 1.5814 6.3552 0 0 0 .1842-.186.2763-.279 2.7632 0 6.1711-2.8837 4.4211-5.8605l-.5526-1.0233c.3684-.5581.4605-1.3023.4605-1.9534.0921-.1861.3684-.6512.3684-.6512.1842-.3721.3684-.9302.3684-1.5814s-.1842-1.3023-.4605-1.9535c.4605-.4651.829-1.0232 1.2895-1.5814z" fill="#fff"/><g fill="#000"><path d="m45.5928 31.2558h5.9868c0-.093-3.0395 4.2791-3.0395 4.2791l1.2895.8372 4.5132-6.6046h-8.75z"/><path d="m52.3161 29.2093.4606-1.3954-4.9737-1.3023-.3684 1.3953 4.9737 1.3024z"/><path d="m62.8156 26.9768c-.2763 0-.4605.093-.6447.3721v.2791c0 .279.0921.4651.3684.6511h.2763c.2763 0 .4606-.186.5527-.3721 0-.093 0-.186 0-.279 0-.2791-.0921-.4651-.3685-.5582 0 0-.1842 0-.2763 0z"/><path d="m64.658 26.7908s-.1842 0-.2763 0c-.2763 0-.4605.093-.5526.3721v.279c0 .1861.0921.4652.3684.5582h.2763c.2764 0 .4606-.093.5527-.2791 0 0 0-.186 0-.2791 0-.186-.0921-.4651-.2763-.5581z"/><path d="m64.198 28.5582h-3.4079v-1.7674h-1.4737v1.9535h-3.5v1.4883h3.5l-.0921 6.1396h1.4737v-6.2326h3.4079v-1.4884z"/><path d="m61.5264 31.3489 2.0263 3.721 1.2895-.7442-2.0264-3.721z"/><path d="m55.2637 34.6047 1.2894.6512 1.9343-4-1.2895-.6512z"/></g><path d="m58.8561 14.7908-1.3816-.2791-2.3026 11.3489 1.2894.279 2.3027-11.3488z" fill="#00cc8b"/><path d="m58.8557 20.9303 1.3816-.3721c.3684 3.2558 1.0132 4.9303 2.2105 4.7442.9211-.093 2.2106-1.3023 3.9606-3.6279l-1.0132-.8372c-1.3816 1.6744-2.2105 2.6977-2.6711 2.6977-.6447 0-.8289-1.3954-1.2894-4.8372l-2.9474.9302z" fill="#00cc8b"/><path d="m46.3292 24.8373c0-.2791-.3685-.4651-.6448-.3721l-8.5658 1.3023-.7368-1.8604-1.0132.3721.6448 1.6744-4.8816.7442v-.7442c0-.2791 0-.6512 0-.9303h1.5658v-1.3953h-1.5658c0-.2791 0-.6512 0-1.0233h-1.3816v1.1163l-3.7763.1861v1.3023l3.8684-.1861v1.8605l-3.7763.5581c-.2763 0-.4605.2791-.4605.4652 0 .279.0921.4651.3684.5581l4.6053 1.7674h.1842c.0921 0 .1842 0 .2763-.093.1842-.093.2763-.279.1842-.4651v-1.9535c-.0921 0 5.1579-.7442 5.1579-.7442l.7368 1.9535c0 .1861.1842.2791.2763.2791h.4606l8.1052-3.7209c.2763-.0931.3685-.3721.2763-.6512zm-18.0527 3.3488 1.8421-.279v1.0232zm9.6711-.186-.4606-1.2093 4.4211-.6512-4.0526 1.8605z" fill="#3d9ffa"/><path d="m33.0657 22.0466h.2763c.1842 0 .4605-.1861.5526-.3721 0 0 0-.1861 0-.2791 0-.279-.1842-.4651-.3684-.5581 0 0-.1842 0-.2763 0-.2763 0-.4605.186-.5526.3721v.186c0 .2791.1842.4651.3684.5582z" fill="#3d9ffa"/><path d="m22.29 21.4884.829 9.4884h1.3816c0-.093-.829-9.5814-.829-9.5814h-1.3816z" fill="#3d9ffa"/><path d="m31.4088 22.2327v.2791c0 .279.1842.5581.3684.6511h.2764c.2763 0 .4605-.186.5526-.3721 0-.093 0-.186 0-.279 0-.2791-.1842-.4652-.4605-.5582-.0921 0-.1843 0-.2764 0-.2763 0-.4605.1861-.6447.3721z" fill="#3d9ffa"/><path d="m31.8684 21.7675v-1.3023c-.0921 0-5.6184.5581-5.6184.5581v1.3024c.0921 0 5.6184-.5582 5.6184-.5582z" fill="#3d9ffa"/><path d="m41.5403 14.7908-5.3421-1.2093-.2763 1.3024 5.3421 1.2093z" fill="#fa533d"/><path d="m34.8154 18.7908c1.3816-.4651 2.671-.7441 3.7763-.8372.921 0 1.6579 0 2.1184.1861.3684.093.7369.3721.7369.8372 0 .3721-.1843.8372-.6448 1.3023-.7368.7442-1.9342 1.5814-3.5921 2.4186h-.0921l.9211 1.1163c1.5658-.7442 2.7631-1.5814 3.5921-2.4186.921-.9302 1.3815-1.8605 1.2894-2.6047 0-1.4883-1.75-2.3255-4.2368-2.2325-1.2895 0-2.8553.3721-4.1447.8372l.4605 1.3023z" fill="#fa533d"/><path d="m53.6061 15.0698.1842-2.6977h-1.3816c0-.093-.1842 2.8838-.1842 2.8838l-4.0526.6511.2763 1.3023 3.6842-.6511-.4605 7.1628h1.3816c0 .093.4605-7.3489.4605-7.3489l1.75-.279-.1842-1.3024-1.3816.1861z" fill="#c83dfa"/><path d="m48.7241 21.2094-.2763-1.3023-1.8421.8372-1.1053-6.9767-1.2895.186 1.2895 8.6512z" fill="#c83dfa"/><path d="m33.1591 17.3025-1.5658.4651-.1842-.8372h-2.8552c0-.0931-3.2237-.1861-3.2237-.1861h-2.9474l-.2763.7442-1.4737.186v-3.4418-3.4419l.2763-3.16277v-3.53488l4.0527-.18605h4.2368 3.9605v3.34884c.0921 0 0 3.44186 0 3.44186v3.3488c.0921 0 0 3.1628 0 3.1628zm-1.5658-2.0466v-3.1627c.0921 0 0-3.34889 0-3.34889l-.1842-2.97674h-2.9473c0-.09302-3.2237-.18605-3.2237-.18605l-2.8553.18605v2.97674l-.2763 3.34889v3.1627h3.2237l3.2237-.186h2.8552zm-3.3157-6.88368-1.5658.18605-.829-2.04651h1.5658l.9211 1.86046zm3.0394 4.93028-1.4737.8372-2.5789-1.0233-2.4869 1.5814-1.6578-.8372 2.7631-1.5814-1.9342-1.4884.2763-1.3023 2.8553 1.5814 1.3816-1.95349 1.2894-2.69768.9211 1.2093-.829 2.04652-1.3815 2.04655 2.8552 1.4883zm-5.4342-4.27912-1.6579.3721-1.1052-1.95349 1.2894-.37209z" fill="#000"/><path d="m18.606 16.5582-1.1974.4651-2.9474.2791h-3.2236c0-.0931-.9211-1.2093-.9211-1.2093v-3.2559-2.2325l-1.10525.4651-1.10527-1.11628 2.21052-.83721v-4.37209c.0921 0 1.4737.55814 1.4737.55814v3.06977l1.4737-.83721v-3.53489l1.5658-.55814-.1842 3.53489 1.6579-.93023.3684-.46512 1.0131.74419v3.34883l-.0921 3.16275-1.6579.9303-1.2894-1.4884v1.4884l-1.4737.5581v-5.20929l-1.1974.74419v2.2326c-.0921 0 0 2.7907 0 2.7907l.5526.5581h2.1185l2.3026-.1861.5526-.372.6448-1.7675 1.1052 2.1395-.5526 1.1163zm-2.6711-4.4651.2763-.4652v-2.69763-1.30233l-1.3815.93023-.1842 3.62793h1.2894zm-6.72365 2.3255-2.21053 1.1163-1.93421.7442-1.19737-1.3953 2.30263-.7442v-4.83724h-1.75l-.46052-1.39535h2.21052v-3.44186l1.6579-.46512-.18421 3.72093 2.11842-.18604-.46053 1.48837-1.56579.18605v4.37206c-.0921 0 1.75-.9302 1.75-.9302z" fill="#000"/></g></svg>