<svg width="17" height="17" viewBox="0 0 17 17" fill="none" xmlns="http://www.w3.org/2000/svg">
<g clip-path="url(#clip0_190_8470)">
<rect width="16" height="16" transform="translate(0.163086 0.188721)" fill="black"/>
<path fill-rule="evenodd" clip-rule="evenodd" d="M2.20103 -0.683413C2.17776 -0.788278 2.31613 -0.848442 2.37696 -0.75991L6.39818 5.09292L7.83836 2.83153C8.06916 2.46912 8.6307 2.69032 8.55233 3.11277L8.05863 5.77426L15.0355 4.22642C15.1403 4.20315 15.2005 4.34152 15.112 4.40235L9.25199 8.42849L11.4809 9.84797C11.8433 10.0788 11.6221 10.6403 11.1996 10.5619L8.57585 10.0752L10.1257 17.0609C10.1489 17.1657 10.0105 17.2259 9.94972 17.1374L5.89778 11.2398L4.46444 13.4905C4.23364 13.8529 3.6721 13.6317 3.75047 13.2092L4.23242 10.6111L-2.7088 12.151C-2.81367 12.1743 -2.87383 12.0359 -2.7853 11.9751L3.10508 7.92809L0.821921 6.47405C0.459514 6.24325 0.680709 5.68171 1.10316 5.76008L3.73902 6.24902L2.20103 -0.683413ZM6.74343 9.5229C7.48035 9.20248 7.81799 8.34533 7.49757 7.60841C7.17715 6.87149 6.32 6.53385 5.58308 6.85427C4.84616 7.1747 4.50852 8.03184 4.82894 8.76876C5.14936 9.50568 6.00651 9.84332 6.74343 9.5229Z" fill="#FAC13D"/>
</g>
<defs>
<clipPath id="clip0_190_8470">
<rect width="16" height="16" fill="white" transform="translate(0.163086 0.188721)"/>
</clipPath>
</defs>
</svg>
